<svg width="60" height="42" viewBox="0 0 60 42" fill="none" xmlns="http://www.w3.org/2000/svg">
<path d="M42.9171 6.31754L59.4218 6.23994C60.7046 15.4434 57.9228 25.1777 51.0876 32.3003C44.4759 39.1901 35.5195 42.1284 26.9469 41.1034L27.0082 23.9971C31.2881 24.755 35.8745 23.3729 39.1977 19.9104C42.7467 16.2123 43.1615 11.1002 42.9171 6.31754Z" fill="#F7E6B0"/>
<path d="M16.8084 34.985L0.303713 35.0626C-0.979162 25.8591 1.80268 16.1248 8.63783 9.00219C15.2496 2.11243 24.2059 -0.825909 32.7785 0.199081L32.7173 17.3054C28.4374 16.5475 23.851 17.9296 20.5277 21.3921C16.9788 25.0902 16.564 30.2023 16.8084 34.985Z" fill="#F7E6B0"/>
<path d="M57.0025 5.7084L59.703 5.69602C60.9859 14.9 58.1017 24.6343 51.2661 31.7569C44.6548 38.6461 35.317 41.585 26.7444 40.56L27.1373 37.8244C35.1429 38.6214 43.2892 35.9249 49.2819 29.6807C55.4893 23.2123 58.0441 14.3358 57.0025 5.7084ZM36.9736 35.5355C41.1516 34.0492 44.8677 31.6312 48.0182 28.3482C51.2757 24.9537 53.6418 20.9381 55.0512 16.4125C56.3953 12.0949 56.7777 7.44321 56.1573 2.96001C56.075 2.36539 55.5455 1.95264 54.9749 2.03833C54.7428 2.07308 54.54 2.18496 54.386 2.3454C54.1612 2.57963 54.0415 2.91764 54.0904 3.27041C55.2778 11.8469 52.4558 20.6467 46.5417 26.81C40.7605 32.8342 32.8124 35.7402 24.7355 34.7828C24.1626 34.7147 23.6455 35.1437 23.5806 35.7407C23.5152 36.3377 23.9269 36.8766 24.4998 36.9442C28.6764 37.4398 32.9897 36.9523 36.9736 35.5355ZM24.2974 30.9504C24.2143 31.545 24.6094 32.0973 25.1801 32.1839C32.7348 33.3317 40.061 30.8704 45.2798 25.4322C47.9707 22.6281 49.9649 19.1256 51.0468 15.3042C52.0916 11.6146 52.2968 7.61032 51.6407 3.72459C51.5407 3.13283 50.9993 2.73721 50.4314 2.84147C50.2121 2.88194 50.0211 2.99048 49.8745 3.14283C49.6419 3.38515 49.5227 3.7384 49.5844 4.10164C50.8225 11.4323 48.6611 18.8314 43.8037 23.8935C39.055 28.8414 32.377 31.0785 25.4811 30.0306C24.911 29.9444 24.3805 30.3558 24.2974 30.9504ZM26.4675 25.9564C25.8973 25.8697 25.3674 26.2815 25.2838 26.8761C25.2006 27.4708 25.5958 28.0225 26.1664 28.1096C32.3441 29.048 38.3355 27.0347 42.6049 22.5857C44.806 20.292 46.4375 17.427 47.3229 14.3006C48.1768 11.2837 48.3449 8.00974 47.8081 4.83289C47.708 4.24113 47.1671 3.84599 46.5992 3.95025C46.3799 3.99024 46.1885 4.09926 46.0423 4.25161C45.8098 4.49393 45.6905 4.84718 45.7517 5.20995C46.7427 11.0776 45.0144 16.9976 41.1283 21.0475C37.3299 25.0056 31.9864 26.7947 26.4675 25.9564Z" fill="#F3D373"/>
<path d="M3.27816 35.0504L0.577641 35.0628C-0.705233 25.8588 2.17895 16.1245 9.01455 9.00193C15.6258 2.11264 24.9637 -0.826174 33.5363 0.198816L33.1434 2.93434C25.1377 2.13739 16.9914 4.83389 10.9987 11.0781C4.7913 17.5465 2.23651 26.423 3.27816 35.0504ZM23.3071 5.22332C19.1291 6.70962 15.4129 9.12761 12.2624 12.4106C9.00496 15.805 6.63886 19.8207 5.22943 24.3463C3.88534 28.6638 3.50294 33.3156 4.12336 37.7988C4.2056 38.3934 4.7351 38.8061 5.30573 38.7205C5.53781 38.6857 5.74066 38.5738 5.89463 38.4134C6.1194 38.1792 6.2391 37.8411 6.19022 37.4884C5.00283 28.9119 7.82488 20.1121 13.739 13.9488C19.5201 7.92457 27.4682 5.0186 35.5451 5.97599C36.118 6.04407 36.6352 5.61513 36.7001 5.01813C36.7654 4.42113 36.3538 3.88221 35.7808 3.81461C31.6042 3.31901 27.2909 3.80652 23.3071 5.22332ZM35.9832 9.8084C36.0664 9.21378 35.6712 8.66153 35.1006 8.57489C27.5459 7.42707 20.2196 9.88838 15.0008 15.3266C12.3099 18.1307 10.3157 21.6332 9.23385 25.4546C8.189 29.1442 7.98387 33.1485 8.63992 37.0342C8.73998 37.626 9.28136 38.0216 9.84924 37.9173C10.0685 37.8768 10.2595 37.7683 10.4062 37.616C10.6387 37.3736 10.7579 37.0204 10.6963 36.6571C9.45816 29.3265 11.6196 21.9274 16.477 16.8653C21.2256 11.9174 27.9036 9.68033 34.7995 10.7282C35.3697 10.8143 35.9001 10.403 35.9832 9.8084ZM33.8131 14.8024C34.3833 14.8891 34.9133 14.4773 34.9969 13.8826C35.08 13.288 34.6848 12.7363 34.1142 12.6491C27.9365 11.7108 21.9452 13.7241 17.6758 18.173C15.4746 20.4668 13.8431 23.3318 12.9577 26.4582C12.1039 29.4751 11.9357 32.749 12.4726 35.9259C12.5726 36.5177 13.1135 36.9128 13.6814 36.8085C13.9007 36.7685 14.0921 36.6595 14.2383 36.5072C14.4709 36.2649 14.5901 35.9116 14.5289 35.5488C13.538 29.6812 15.2663 23.7612 19.1524 19.7112C22.9507 15.7531 28.2942 13.9641 33.8131 14.8024Z" fill="#F3D373"/>
<path d="M32.1218 32.8233C32.1218 37.6709 29.6229 41.6001 26.5403 41.6001C23.4576 41.6001 20.9587 37.6709 20.9587 32.8233C20.9587 27.9761 23.4576 24.0469 26.5403 24.0469C29.6229 24.0469 32.1218 27.9761 32.1218 32.8233ZM51.4818 11.9257C56.121 11.9257 59.8821 9.25579 59.8821 5.96259C59.8821 2.66988 56.121 1.08869e-06 51.4818 1.08869e-06C46.8422 1.08869e-06 43.0811 2.66939 43.0811 5.96259C43.0811 9.25579 46.8422 11.9257 51.4818 11.9257Z" fill="#F5C02C"/>
<path d="M27.642 8.76619C27.642 4.03448 30.1122 0.199219 33.1595 0.199219C36.2068 0.199219 38.6771 4.03448 38.6771 8.76619C38.6771 13.4974 36.2068 17.3327 33.1595 17.3327C30.1122 17.3327 27.642 13.4974 27.642 8.76619ZM8.50392 29.1641C3.91791 29.1641 0.199951 31.7702 0.199951 34.9846C0.199951 38.1986 3.91791 40.8046 8.50392 40.8046C13.0904 40.8046 16.8083 38.1991 16.8083 34.9846C16.8083 31.7702 13.0904 29.1641 8.50392 29.1641Z" fill="#F5C02C"/>
</svg>
